<svg xmlns="http://www.w3.org/2000/svg" width="131.356" height="33.13" viewBox="0 0 131.356 33.13">
  <g id="Group_9392" data-name="Group 9392" transform="translate(-2082.814 -308.789)">
    <g id="Group_1067" data-name="Group 1067" transform="translate(2143.269 313.382)">
      <path id="Path_235" data-name="Path 235" d="M2184.925,317.328a1.876,1.876,0,0,1,.589-1.52,2.568,2.568,0,0,1,1.691-.493,4.354,4.354,0,0,1,1.254.17c.38.114.633.2.76.247v17.138a13.574,13.574,0,0,1-.779,4.826,9.546,9.546,0,0,1-2.146,3.42,8.816,8.816,0,0,1-3.231,2.053,11.71,11.71,0,0,1-4.065.683,10.9,10.9,0,0,1-4.123-.76,9.922,9.922,0,0,1-3.249-2.09,9.5,9.5,0,0,1-2.147-3.192,10.327,10.327,0,0,1-.779-4.028,10.753,10.753,0,0,1,.741-4.047,9.748,9.748,0,0,1,2.052-3.191,9.213,9.213,0,0,1,3.078-2.09,9.871,9.871,0,0,1,3.857-.741,8.409,8.409,0,0,1,3.875.855,7.7,7.7,0,0,1,2.622,2.072Zm0,16.453a6.756,6.756,0,0,0-.436-2.432,6.218,6.218,0,0,0-1.2-1.975,5.383,5.383,0,0,0-1.843-1.311,6.222,6.222,0,0,0-4.769,0,5.773,5.773,0,0,0-1.843,1.292,5.587,5.587,0,0,0-1.2,1.957,7.115,7.115,0,0,0-.417,2.47,6.948,6.948,0,0,0,.417,2.451,5.612,5.612,0,0,0,1.2,1.939,5.688,5.688,0,0,0,4.237,1.767,6.061,6.061,0,0,0,2.375-.456,5.426,5.426,0,0,0,1.843-1.254,5.78,5.78,0,0,0,1.2-1.939A6.967,6.967,0,0,0,2184.925,333.781Z" transform="translate(-2168.7 -315.314)" fill="#1dc4ae"/>
      <path id="Path_236" data-name="Path 236" d="M2205.764,315.853a2.6,2.6,0,1,1-1.862.76A2.533,2.533,0,0,1,2205.764,315.853Zm-2.166,10.564a1.837,1.837,0,0,1,.607-1.539,2.725,2.725,0,0,1,1.711-.474,4.323,4.323,0,0,1,1.253.171q.57.171.761.246v18.658H2203.6Z" transform="translate(-2178.898 -315.474)" fill="#1dc4ae"/>
      <path id="Path_237" data-name="Path 237" d="M2216.8,317.328a1.846,1.846,0,0,1,.607-1.52,2.649,2.649,0,0,1,1.71-.493,4.355,4.355,0,0,1,1.254.17c.379.114.632.2.76.247v27.587H2216.8Z" transform="translate(-2182.941 -315.314)" fill="#1dc4ae"/>
      <path id="Path_238" data-name="Path 238" d="M2229.809,317.328a1.844,1.844,0,0,1,.607-1.52,2.648,2.648,0,0,1,1.71-.493,4.346,4.346,0,0,1,1.254.17c.381.114.633.2.76.247v27.587h-4.332Z" transform="translate(-2186.794 -315.314)" fill="#1dc4ae"/>
    </g>
    <path id="Path_239" data-name="Path 239" d="M2082.814,343.846q.951-2.545,2.127-5.49t2.47-6.042q1.291-3.1,2.679-6.289t2.755-6.232a4.879,4.879,0,0,1,1.557-2.109,3.861,3.861,0,0,1,2.2-.589,4.148,4.148,0,0,1,.969.114,5.572,5.572,0,0,1,.836.266q.36.152.608.285a1.832,1.832,0,0,1,.285.171q.609,1.064,1.577,3.154t2.09,4.693q1.121,2.6,2.3,5.434t2.185,5.357q1.006,2.528,1.767,4.484t1.064,2.793h-5.016q-.19-.456-.493-1.292t-.666-1.805q-.362-.968-.74-1.956t-.684-1.749h-12.731q-.836,2.091-1.5,3.857t-1.083,2.945Zm18.354-10.792q-.532-1.405-1.216-3.1t-1.349-3.306q-.665-1.615-1.253-2.945t-.932-2.014q-.493,1.064-1.1,2.413t-1.254,2.849q-.646,1.5-1.292,3.059t-1.217,3.04Z" transform="translate(0 -2.459)" fill="#1dc4ae"/>
    <path id="Path_240" data-name="Path 240" d="M2125.244,334.577a6.883,6.883,0,0,1,2.147-5.414,8.609,8.609,0,0,1,5.947-1.919,9.694,9.694,0,0,1,3.895.665,2.161,2.161,0,0,1,1.5,2.033,2.426,2.426,0,0,1-.361,1.254,2.562,2.562,0,0,1-.589.76,10.375,10.375,0,0,0-1.6-.57,8.074,8.074,0,0,0-2.165-.266q-4.447,0-4.448,4.712v11.02h-4.332Z" transform="translate(-12.563 -5.465)" fill="#1dc4ae"/>
    <path id="Path_241" data-name="Path 241" d="M2148.24,322.348a1.834,1.834,0,0,1,.609-1.539,2.647,2.647,0,0,1,1.672-.475,4.554,4.554,0,0,1,1.273.171q.588.171.78.247v4.978h5.509a2.458,2.458,0,0,1,1.767.512,2.036,2.036,0,0,1,.513,1.5,3.629,3.629,0,0,1-.19,1.2,7.426,7.426,0,0,1-.3.779h-7.3v8.474a4.176,4.176,0,0,0,.265,1.615,2.524,2.524,0,0,0,.741,1.007,2.794,2.794,0,0,0,1.1.532,5.533,5.533,0,0,0,1.31.152,6.011,6.011,0,0,0,2.052-.342,5.791,5.791,0,0,0,1.368-.646l1.748,2.888q-.305.228-.855.57a7.918,7.918,0,0,1-1.348.646,12.022,12.022,0,0,1-1.787.513,10.47,10.47,0,0,1-2.166.209,6.8,6.8,0,0,1-5.053-1.729,6.175,6.175,0,0,1-1.711-4.541Z" transform="translate(-19.372 -3.419)" fill="#1dc4ae"/>
    <path id="Path_242" data-name="Path 242" d="M2111.206,319.29s-2.01-2.569.67-5.7,2.681-4.8,2.681-4.8S2117.909,317.168,2111.206,319.29Z" transform="translate(-8.193 0)" fill="#1dc4ae"/>
    <path id="Path_243" data-name="Path 243" d="M2091.231,319.337s2.01-2.57-.67-5.7-2.681-4.8-2.681-4.8S2084.528,317.214,2091.231,319.337Z" transform="translate(-1.252 -0.014)" fill="#1dc4ae"/>
    <g id="Group_1068" data-name="Group 1068" transform="translate(2194.087 321.363)">
      <path id="Path_244" data-name="Path 244" d="M2240.949,334.866c.028-.138.053-.277.084-.415a10.194,10.194,0,0,1,7.306-7.477,9.293,9.293,0,0,1,1.319-.244,10.962,10.962,0,0,1,1.48-.076,11.361,11.361,0,0,1,1.449.128,9.731,9.731,0,0,1,2.115.566,10.127,10.127,0,0,1,4.245,3.153,9.766,9.766,0,0,1,1.74,3.381c.082.281.141.569.211.855a.049.049,0,0,1-.007.039l-.042-.049c-.533-.659-1.051-1.33-1.6-1.973a12.582,12.582,0,0,0-4.118-3.189,10.248,10.248,0,0,0-2.175-.781c-.362-.082-.731-.14-1.1-.193a7.377,7.377,0,0,0-1.656-.027,9.052,9.052,0,0,0-2.907.762,12.916,12.916,0,0,0-2.684,1.634,15.132,15.132,0,0,0-2.037,1.9,19.156,19.156,0,0,0-1.258,1.585c-.1.141-.213.275-.321.413a.091.091,0,0,1-.021.016Z" transform="translate(-2240.91 -326.652)" fill="#1dc4ae"/>
      <path id="Path_245" data-name="Path 245" d="M2260.376,339.684c-.144.048-.287.1-.433.145a19.744,19.744,0,0,1-2.351.615c-.539.1-1.081.2-1.625.279-.5.072-1.008.127-1.514.172s-1.034.071-1.551.1c-.751.045-1.5.035-2.255.01q-.774-.025-1.545-.084c-.514-.039-1.027-.093-1.54-.147q-.549-.057-1.1-.134c-.309-.042-.617-.093-.924-.146-.393-.069-.785-.137-1.176-.218a15.652,15.652,0,0,1-2.055-.554l-.045-.019a41.8,41.8,0,0,1,4.474-.984,35.433,35.433,0,0,1,4.577-.33,32.12,32.12,0,0,1,4.584.322,33.79,33.79,0,0,1,4.474.953Z" transform="translate(-2241.3 -330.127)" fill="#1dc4ae"/>
      <path id="Path_246" data-name="Path 246" d="M2242.887,337.488a.535.535,0,0,0,.071-.042,13.969,13.969,0,0,1,3.239-2.124,12.766,12.766,0,0,1,2.728-.926,10.785,10.785,0,0,1,1.638-.24c.4-.025.793-.048,1.19-.038a13.51,13.51,0,0,1,1.36.1,12.441,12.441,0,0,1,3.6,1.019,13.977,13.977,0,0,1,3.467,2.243.083.083,0,0,1,.024.039,33.228,33.228,0,0,0-17.292.006Z" transform="translate(-2241.484 -328.862)" fill="#1dc4ae"/>
      <path id="Path_247" data-name="Path 247" d="M2259.776,334.791c-.16-.1-.319-.21-.48-.314a13.526,13.526,0,0,0-2.883-1.413,14.6,14.6,0,0,0-2.241-.588,11.534,11.534,0,0,0-1.472-.176c-.457-.021-.915-.027-1.372-.013a12.643,12.643,0,0,0-1.683.173,14.258,14.258,0,0,0-3.278.962,14.645,14.645,0,0,0-2.592,1.435c-.015.011-.031.02-.047.03s-.009,0-.027,0a.375.375,0,0,1,.031-.053,14.032,14.032,0,0,1,2.905-2.669,10.772,10.772,0,0,1,2.741-1.331,8.329,8.329,0,0,1,1.61-.341,7.623,7.623,0,0,1,1.335-.023,8.932,8.932,0,0,1,3.978,1.294,12.817,12.817,0,0,1,2.8,2.242c.22.232.428.475.643.713.016.018.03.039.044.058Z" transform="translate(-2241.725 -327.778)" fill="#1dc4ae"/>
      <path id="Path_248" data-name="Path 248" d="M2249.541,347.161c0,.315,0,.63,0,.945a.1.1,0,0,1-.062.1c-.553.315-1.1.632-1.658.945a.118.118,0,0,1-.1,0c-.432-.244-.862-.492-1.293-.739-.125-.072-.25-.144-.376-.214a.089.089,0,0,1-.052-.089c0-.638,0-1.275,0-1.912a.108.108,0,0,1,.047-.081c.553-.32,1.107-.637,1.66-.955a.111.111,0,0,1,.127,0q.775.447,1.553.889c.15.086.151.084.151.255Z" transform="translate(-2242.405 -332.129)" fill="#1dc4ae"/>
      <path id="Path_249" data-name="Path 249" d="M2261.709,347.141c0,.315,0,.631,0,.946a.115.115,0,0,1-.069.115q-.831.472-1.657.948c-.055.032-.089,0-.127-.019l-.77-.441c-.289-.166-.578-.332-.868-.5a.094.094,0,0,1-.054-.094q0-.949,0-1.9a.1.1,0,0,1,.058-.1q.827-.471,1.65-.947a.108.108,0,0,1,.123,0q.745.429,1.492.855c.053.03.1.064.159.089a.1.1,0,0,1,.063.11C2261.708,346.52,2261.709,346.831,2261.709,347.141Z" transform="translate(-2246.008 -332.126)" fill="#1dc4ae"/>
      <path id="Path_250" data-name="Path 250" d="M2255.621,347.178c0,.313,0,.626,0,.939a.1.1,0,0,1-.062.1q-.835.476-1.67.952a.11.11,0,0,1-.093,0c-.339-.191-.676-.384-1.014-.578-.215-.123-.429-.246-.644-.366a.11.11,0,0,1-.065-.111q0-.939,0-1.877a.111.111,0,0,1,.062-.112q.731-.414,1.457-.831c.065-.037.13-.074.194-.113a.1.1,0,0,1,.117,0l1.455.834c.067.039.133.078.2.113a.1.1,0,0,1,.061.106C2255.619,346.548,2255.621,346.863,2255.621,347.178Z" transform="translate(-2244.205 -332.133)" fill="#1dc4ae"/>
      <path id="Path_251" data-name="Path 251" d="M2258.669,352.181c0,.246,0,.491,0,.736a.071.071,0,0,1-.056.081,9.116,9.116,0,0,1-1.527.419c-.339.058-.681.106-1.023.149-.18.022-.363.024-.545.034a.1.1,0,0,1-.054-.01c-.1-.056-.2-.113-.3-.175a.1.1,0,0,1-.036-.075q0-.957,0-1.912a.12.12,0,0,1,.056-.084c.4-.234.808-.465,1.212-.7.144-.082.289-.163.431-.248a.123.123,0,0,1,.142,0c.482.278.966.554,1.45.831.068.039.14.076.2.121a.118.118,0,0,1,.045.082C2258.671,351.681,2258.669,351.931,2258.669,352.181Z" transform="translate(-2245.108 -333.677)" fill="#1dc4ae"/>
      <path id="Path_252" data-name="Path 252" d="M2252.571,352.4c0,.312,0,.626,0,.938a.11.11,0,0,1-.056.1.567.567,0,0,1-.458.092,10.131,10.131,0,0,1-2.982-.864.1.1,0,0,1-.046-.071q0-.582,0-1.164a.1.1,0,0,1,.043-.075c.289-.17.581-.336.872-.5.255-.146.51-.291.764-.438a.147.147,0,0,1,.171,0c.49.284.982.564,1.474.845.051.029.1.061.152.087a.106.106,0,0,1,.065.11C2252.57,351.769,2252.571,352.084,2252.571,352.4Z" transform="translate(-2243.303 -333.68)" fill="#1dc4ae"/>
      <path id="Path_253" data-name="Path 253" d="M2242.938,341.6a27.621,27.621,0,0,0,3.541.721v.1c0,.317,0,.635,0,.952a.109.109,0,0,1-.063.111q-.727.413-1.45.829c-.071.041-.14.084-.213.119a.11.11,0,0,1-.088,0c-.342-.192-.681-.387-1.021-.582-.216-.123-.432-.248-.649-.37a.1.1,0,0,1-.061-.091c0-.584,0-1.168,0-1.751C2242.934,341.634,2242.936,341.625,2242.938,341.6Z" transform="translate(-2241.498 -331.079)" fill="#1dc4ae"/>
      <path id="Path_254" data-name="Path 254" d="M2264.256,347.238c0-.315,0-.63,0-.945a.1.1,0,0,1,.06-.1q.827-.471,1.65-.945a.1.1,0,0,1,.117,0q.512.3,1.025.587c.043.025.059.047.036.1a9.95,9.95,0,0,1-1.8,2.833c-.072.08-.071.078-.165.025q-.432-.25-.867-.5a.1.1,0,0,1-.058-.1C2264.257,347.873,2264.256,347.556,2264.256,347.238Z" transform="translate(-2247.811 -332.152)" fill="#1dc4ae"/>
      <path id="Path_255" data-name="Path 255" d="M2264.722,341.9v.069c0,.513,0,1.027,0,1.541a.12.12,0,0,1-.068.122c-.55.311-1.1.625-1.646.94a.1.1,0,0,1-.109,0l-1.431-.821c-.081-.046-.164-.089-.241-.141a.115.115,0,0,1-.046-.082c0-.3,0-.6,0-.9,0-.047.015-.061.063-.068.553-.084,1.108-.155,1.657-.26.605-.118,1.2-.268,1.806-.4Z" transform="translate(-2246.9 -331.166)" fill="#1dc4ae"/>
      <path id="Path_256" data-name="Path 256" d="M2252.578,343.048c0,.243,0,.476,0,.709a.087.087,0,0,1-.042.061q-.548.318-1.1.631c-.179.1-.36.2-.539.31a.144.144,0,0,1-.166,0c-.439-.255-.88-.506-1.322-.759-.107-.061-.215-.12-.321-.185a.108.108,0,0,1-.049-.074c0-.315,0-.63,0-.945a.268.268,0,0,1,.007-.035C2250.216,342.909,2251.391,343.005,2252.578,343.048Z" transform="translate(-2243.305 -331.423)" fill="#1dc4ae"/>
      <path id="Path_257" data-name="Path 257" d="M2255.125,343.125a31.222,31.222,0,0,0,3.54-.156c0,.023,0,.04,0,.058,0,.257,0,.514,0,.771a.1.1,0,0,1-.059.1c-.537.306-1.073.612-1.607.922a.188.188,0,0,1-.216,0c-.4-.235-.808-.465-1.212-.7-.134-.077-.269-.151-.4-.229-.021-.013-.048-.041-.048-.062C2255.124,343.6,2255.125,343.367,2255.125,343.125Z" transform="translate(-2245.109 -331.484)" fill="#1dc4ae"/>
      <path id="Path_258" data-name="Path 258" d="M2243.462,348.489c-.169-.222-.341-.437-.5-.661a9.739,9.739,0,0,1-1.225-2.326c-.018-.05-.013-.071.036-.1.131-.07.26-.146.386-.224a.105.105,0,0,1,.123.012l.759.434c.288.165.576.332.867.5a.124.124,0,0,1,.076.125q-.005.935,0,1.87a.115.115,0,0,1-.072.118C2243.762,348.313,2243.621,348.4,2243.462,348.489Z" transform="translate(-2241.14 -332.134)" fill="#1dc4ae"/>
      <path id="Path_259" data-name="Path 259" d="M2268.32,343.9l-.7-.4c-.093-.053-.185-.108-.279-.159a.092.092,0,0,1-.054-.094q0-.9,0-1.792a.07.07,0,0,1,.057-.079c.395-.132.789-.267,1.181-.4.1-.033.171.024.253.047.009,0,.014.037.012.056-.027.365-.047.731-.084,1.094a8.43,8.43,0,0,1-.3,1.44C2268.382,343.707,2268.352,343.8,2268.32,343.9Z" transform="translate(-2248.708 -330.89)" fill="#1dc4ae"/>
      <path id="Path_260" data-name="Path 260" d="M2263.854,350.88a9.984,9.984,0,0,1-2.655,1.794c0-.03,0-.052,0-.074,0-.385,0-.771,0-1.156a.11.11,0,0,1,.064-.11c.551-.313,1.1-.629,1.653-.941a.12.12,0,0,1,.1,0c.28.156.556.315.833.474C2263.847,350.864,2263.848,350.87,2263.854,350.88Z" transform="translate(-2246.904 -333.678)" fill="#1dc4ae"/>
      <path id="Path_261" data-name="Path 261" d="M2247.068,352.262a10.114,10.114,0,0,1-2.137-1.656c.118-.067.227-.132.339-.191a.1.1,0,0,1,.078.013q.595.338,1.189.68c.156.089.311.18.468.266a.112.112,0,0,1,.065.111C2247.066,351.737,2247.068,351.989,2247.068,352.262Z" transform="translate(-2242.089 -333.687)" fill="#1dc4ae"/>
      <path id="Path_262" data-name="Path 262" d="M2241.241,343.485c-.028-.11-.053-.21-.079-.31a9.046,9.046,0,0,1-.214-1.244c-.029-.278-.035-.559-.053-.838,0-.051.016-.07.064-.088a.216.216,0,0,1,.215.02c.119.077.247.141.368.215a.1.1,0,0,1,.044.076q0,.96,0,1.919a.089.089,0,0,1-.025.066C2241.459,343.363,2241.356,343.42,2241.241,343.485Z" transform="translate(-2240.894 -330.896)" fill="#1dc4ae"/>
    </g>
  </g>
</svg>
