<?xml version="1.0" encoding="utf-8"?>
<!-- Generator: Adobe Illustrator 18.1.1, SVG Export Plug-In . SVG Version: 6.00 Build 0)  -->
<svg version="1.1" id="Layer_1" xmlns="http://www.w3.org/2000/svg" xmlns:xlink="http://www.w3.org/1999/xlink" x="0px" y="0px"
	 viewBox="0 351.7 612 68.4" enable-background="new 0 351.7 612 68.4" xml:space="preserve">
<path fill="#DFEEFA" d="M5.7,389.2v-34.1H1.9v34.1c0,8.2,5.7,14,14,14h13.6v-3.9H15.8C9.8,399.3,5.7,395.3,5.7,389.2z"/>
<rect x="33.3" y="355.1" fill="#DFEEFA" width="3.9" height="7.6"/>
<rect x="33.3" y="367.1" fill="#DFEEFA" width="3.9" height="36.1"/>
<path fill="#DFEEFA" d="M45.7,365.4v37.8h3.9V371h9.3v-3.9h-9.3v-1.5c0-4.2,1.3-9.2,7.7-9.2c0.3,0,0.5,0,0.8,0l0.7,0v-3.7l-0.6-0.1
	C50.5,352.1,45.7,357.1,45.7,365.4z"/>
<path fill="#DFEEFA" d="M90.7,391.4c-2.5,5.8-6.8,8.7-13.2,8.7c-5.9,0-11-3.4-13.3-8.8l29.9-12.6l-0.2-0.6
	c-2.8-7.2-9.4-11.9-16.7-11.9c-9.9,0-18,8.5-18,19c0,10.5,8.1,18.7,18.4,18.7c8.4,0,14.3-4.2,17.1-12l0.3-0.9h-4.1L90.7,391.4z
	 M77.1,370c4.7,0,9.1,2.6,11.7,6.8l-25.7,10.7c-0.1-0.8-0.2-1.6-0.2-2.3C63,376.8,69.3,370,77.1,370z"/>
<path fill="#52BBEB" d="M175.2,388.2c0,6.6-5.4,11.9-12,11.9c-6.6,0-11.9-5.3-11.9-11.9v-33.1h-3.9v33.1c0,6.6-5.4,11.9-12,11.9
	c-6.6,0-11.9-5.3-11.9-11.9v-33.1h-3.9v33.1c0,8.7,7.1,15.8,15.8,15.8c5.9,0,11.2-3.3,13.9-8.4c2.7,5.2,8,8.4,13.9,8.4
	c8.7,0,15.8-7.1,15.8-15.8v-33.1h-3.9V388.2z"/>
<rect x="187.8" y="355.1" fill="#52BBEB" width="3.9" height="7.6"/>
<rect x="187.8" y="367.1" fill="#52BBEB" width="3.9" height="36.1"/>
<path fill="#52BBEB" d="M203.5,359.7h-3.9v30.8c0,7.9,4.3,12.7,11.2,12.7c0.5,0,0.9,0,1.4-0.1l0.6-0.1v-3.6l-0.7,0
	c-3,0.1-5.3-0.7-6.7-2.4c-1.2-1.5-1.9-3.7-1.9-6.6V371h9.3v-3.9h-9.3V359.7z"/>
<path fill="#52BBEB" d="M235,366.3c-4.8,0-9,1.9-11.8,5.3v-19.8h-3.9v51.5h3.9v-21.6c0-6.6,5.1-11.5,11.8-11.5c7.1,0,11,4.1,11,11.5
	v21.6h3.9v-21.6C249.8,372.1,244.1,366.3,235,366.3z"/>
<path fill="#52BBEB" d="M272.8,366.3c-9.9,0-18,8.5-18,19c0,10.3,8.1,18.7,18,18.7c10,0,18.1-8.4,18.1-18.7
	C290.9,374.8,282.8,366.3,272.8,366.3z M272.8,400.3c-7.8,0-14.1-6.7-14.1-15c0-8.4,6.3-15.3,14.1-15.3s14.1,6.8,14.1,15.3
	C286.9,393.5,280.6,400.3,272.8,400.3z"/>
<path fill="#52BBEB" d="M322.4,388.8c0,6.6-4.8,11.4-11.4,11.4c-6.6,0-11.4-4.8-11.4-11.4v-21.6h-3.9v21.6c0,8.8,6.4,15.2,15.2,15.2
	c8.9,0,15.3-6.4,15.3-15.2v-21.6h-3.9V388.8z"/>
<path fill="#52BBEB" d="M337.5,359.7h-3.9v30.8c0,7.9,4.3,12.7,11.2,12.7c0.5,0,0.9,0,1.4-0.1l0.6-0.1v-3.6l-0.7,0
	c-3,0.1-5.3-0.7-6.7-2.4c-1.2-1.5-1.9-3.7-1.9-6.6V371h9.3v-3.9h-9.3V359.7z"/>
<path fill="#DFEEFA" d="M376.1,389.2v-34.1h-3.9v34.1c0,8.2,5.7,14,14,14h13.6v-3.9h-13.6C380.2,399.3,376.1,395.3,376.1,389.2z"/>
<path fill="#DFEEFA" d="M417.6,366.3c-9.9,0-18,8.5-18,19c0,10.3,8.1,18.7,18,18.7c5.6,0,10.9-2.8,14.1-7.4v6.6h3.9v-17.9
	C435.6,374.8,427.6,366.3,417.6,366.3z M417.6,370.2c7.8,0,14.1,6.8,14.1,15.1c0,8.2-6.3,14.9-14.1,14.9s-14.1-6.7-14.1-14.9
	C403.5,377,409.8,370.2,417.6,370.2z"/>
<path fill="#DFEEFA" d="M468.9,388.8c0,6.6-4.8,11.4-11.4,11.4c-6.6,0-11.4-4.8-11.4-11.4v-21.6h-3.9v21.6c0,8.8,6.4,15.2,15.2,15.2
	c8.9,0,15.3-6.4,15.3-15.2v-21.6h-3.9V388.8z"/>
<path fill="#DFEEFA" d="M495,366.3c-8.9,0-15.3,6.4-15.3,15.3v21.6h3.9v-21.6c0-6.6,4.8-11.4,11.4-11.4c6.6,0,11.4,4.8,11.4,11.4
	v21.6h3.9v-21.6C510.2,372.7,503.8,366.3,495,366.3z"/>
<path fill="#DFEEFA" d="M547.4,373.8c-3.3-4.7-8.5-7.5-14.1-7.5c-9.9,0-18,8.5-18,19c0,10.3,8.1,18.7,18,18.7s18-8.4,18-18.7v-33.5
	h-3.9V373.8z M533.2,400.1c-7.8,0-14.1-6.7-14.1-14.9c0-8.3,6.3-15.1,14.1-15.1c7.8,0,14.1,6.8,14.1,15.1
	C547.4,393.5,541,400.1,533.2,400.1z"/>
<path fill="#DFEEFA" d="M572.3,366.3c-9.2,0-14.9,5.8-14.9,15.2v21.6h3.9v-21.6c0-8,4.8-12.2,13.4-11.4l0.7,0.1v-3.7l-0.6-0.1
	C573.9,366.4,573.1,366.3,572.3,366.3z"/>
<path fill="#DFEEFA" d="M605.3,367.1v21.6c0,6.6-4.8,11.4-11.4,11.4s-11.4-4.8-11.4-11.4v-21.6h-3.9v21.6c0,8.8,6.4,15.2,15.2,15.2
	c4.7,0,8.7-1.8,11.4-5v6c0,6.8-4.5,11.4-11.2,11.4c-5.4,0-9.7-3.3-10.8-8.4l-0.1-0.5h-4l0.2,0.8c1.4,7.2,7.4,12,14.8,12
	c8.9,0,15.2-6.3,15.2-15.2v-37.8H605.3z"/>
</svg>
